<?xml version="1.0" encoding="UTF-8" standalone="no"?>
<svg
   xmlns:dc="http://purl.org/dc/elements/1.1/"
   xmlns:cc="http://creativecommons.org/ns#"
   xmlns:rdf="http://www.w3.org/1999/02/22-rdf-syntax-ns#"
   xmlns:svg="http://www.w3.org/2000/svg"
   xmlns="http://www.w3.org/2000/svg"
   xmlns:sodipodi="http://sodipodi.sourceforge.net/DTD/sodipodi-0.dtd"
   xmlns:inkscape="http://www.inkscape.org/namespaces/inkscape"
   viewBox="0 0 608 608"
   fill-rule="evenodd"
   clip-rule="evenodd"
   stroke-linejoin="round"
   stroke-miterlimit="1.414"
   version="1.1"
   id="svg12"
   sodipodi:docname="logo-small-enlarged-text.svg"
   inkscape:version="1.0.2 (1.0.2+r75+1)">
  <metadata
     id="metadata18">
    <rdf:RDF>
      <cc:Work
         rdf:about="">
        <dc:format>image/svg+xml</dc:format>
        <dc:type
           rdf:resource="http://purl.org/dc/dcmitype/StillImage" />
        <dc:title></dc:title>
      </cc:Work>
    </rdf:RDF>
  </metadata>
  <defs
     id="defs16" />
  <sodipodi:namedview
     pagecolor="#ffffff"
     bordercolor="#666666"
     borderopacity="1"
     objecttolerance="10"
     gridtolerance="10"
     guidetolerance="10"
     inkscape:pageopacity="0"
     inkscape:pageshadow="2"
     inkscape:window-width="1920"
     inkscape:window-height="1121"
     id="namedview14"
     showgrid="false"
     inkscape:zoom="0.76644737"
     inkscape:cx="394.00436"
     inkscape:cy="139.38051"
     inkscape:window-x="1920"
     inkscape:window-y="27"
     inkscape:window-maximized="1"
     inkscape:current-layer="svg12"
     inkscape:document-rotation="0" />
  <path
     d="M630.988 320.63V188.324h99.863v-35.62l110.197 101.773L730.85 356.25v-35.62h-99.86z"
     fill="none"
     stroke-width="16.62"
     stroke="#000"
     transform="matrix(0 2.665 -2.7482 0 1003.016 -1657.67)"
     id="path2" />
  <path
     d="M121.86 23.913h363.604v266.135h97.89l-279.69 293.667L23.97 290.048h97.89V23.913z"
     fill="#FFB300"
     id="path4" />
  <path
     d="M303.664 583.797L122.274 23.975h362.78l-181.39 559.822z"
     fill="#FFCA28"
     id="path6" />
  <path
     d="M 190.7896,518.07926 H 25.489101 V 483.29258 H 123.57158 V 452.42924 H 25.489101 V 352.51816 H 190.7896 v 34.52166 H 92.708235 v 30.86334 H 190.7896 v 100.17389 z m 98.08137,-34.78668 h 30.86334 v -30.86334 h -30.86334 z m 98.08247,34.78668 h -165.3005 v -100.1739 h 98.08137 v -30.86333 h -98.08137 v -34.52498 h 165.3005 z m 98.08137,-34.78668 h 30.86334 v -96.25055 h -30.86334 z m -67.21913,34.78668 V 287.12874 h 67.21913 v 65.38831 h 98.08137 v 165.56221 z"
     fill="none"
     stroke-width="49.6949"
     stroke-linecap="round"
     stroke="#000000"
     id="path8" />
  <path
     d="M 190.7896,518.07926 H 25.489101 V 483.29258 H 123.57158 V 452.42924 H 25.489101 V 352.51816 H 190.7896 v 34.52166 H 92.708235 v 30.86334 H 190.7896 v 100.17389 z m 98.08137,-34.78668 h 30.86334 v -30.86334 h -30.86334 z m 98.08247,34.78668 h -165.3005 v -100.1739 h 98.08137 v -30.86333 h -98.08137 v -34.52498 h 165.3005 z m 98.08137,-34.78668 h 30.86334 v -96.25055 h -30.86334 z m -67.21913,34.78668 V 287.12874 h 67.21913 v 65.38831 h 98.08137 v 165.56221 z"
     fill="#ffffff"
     fill-rule="nonzero"
     id="path10"
     style="stroke-width:1.10424" />
</svg>
