<?xml version="1.0" encoding="UTF-8"?>
<svg clip-rule="evenodd" fill-rule="evenodd" stroke-linejoin="round" stroke-miterlimit="1.414" version="1.1" viewBox="0 0 608 608" xmlns="http://www.w3.org/2000/svg">
 <path transform="matrix(0 2.665 -2.7482 0 1003 -1657.7)" d="m630.99 320.63v-132.31h99.863v-35.62l110.2 101.77-110.2 101.77v-35.62h-99.86z" fill="none" stroke="#000" stroke-width="16.62"/>
 <path d="m121.86 23.913h363.6v266.14h97.89l-279.69 293.67-279.69-293.67h97.89v-266.14z" fill="#FFB300"/>
 <path d="m303.66 583.8-181.39-559.82h362.78l-181.39 559.82z" fill="#FFCA28"/>
 <path d="m190.79 518.08h-165.3v-34.787h98.082v-30.863h-98.082v-99.911h165.3v34.522h-98.081v30.863h98.081v100.17zm98.081-34.787h30.863v-30.863h-30.863zm98.082 34.787h-165.3v-100.17h98.081v-30.863h-98.081v-34.525h165.3zm98.081-34.787h30.863v-96.251h-30.863zm-67.219 34.787v-230.95h67.219v65.388h98.081v165.56z" fill="none" stroke="#000" stroke-linecap="round" stroke-width="49.695"/>
 <path d="m190.79 518.08h-165.3v-34.787h98.082v-30.863h-98.082v-99.911h165.3v34.522h-98.081v30.863h98.081v100.17zm98.081-34.787h30.863v-30.863h-30.863zm98.082 34.787h-165.3v-100.17h98.081v-30.863h-98.081v-34.525h165.3zm98.081-34.787h30.863v-96.251h-30.863zm-67.219 34.787v-230.95h67.219v65.388h98.081v165.56z" fill="#fff" fill-rule="nonzero" stroke-width="1.1042"/>
</svg>
